<svg width="25" height="28" viewBox="0 0 25 28" fill="none" xmlns="http://www.w3.org/2000/svg">
<path fill-rule="evenodd" clip-rule="evenodd" d="M17.7951 9.06652C18.0797 8.75732 18.4608 8.58622 18.8564 8.59009C19.252 8.59396 19.6305 8.77248 19.9102 9.08719C20.19 9.40191 20.3486 9.82765 20.3521 10.2727C20.3555 10.7178 20.2034 11.1465 19.9286 11.4667L13.8933 18.2564C13.6103 18.5746 13.2266 18.7534 12.8266 18.7534C12.4265 18.7534 12.0428 18.5746 11.7598 18.2564L5.72451 11.4667C5.44966 11.1465 5.29758 10.7178 5.30102 10.2727C5.30446 9.82765 5.46314 9.40191 5.74289 9.08719C6.02264 8.77248 6.40107 8.59396 6.79668 8.59009C7.19229 8.58622 7.57342 8.75732 7.85799 9.06652L12.8266 14.6562L17.7951 9.06652Z" fill="#5561FF"/>
</svg>
