<svg width="217" height="160" viewBox="0 0 217 160" fill="none" xmlns="http://www.w3.org/2000/svg">
<g filter="url(#filter0_d_2326_10201)">
<path d="M124.279 47.762L106.243 71.0858C105.677 71.9357 104.543 72.0301 103.694 71.3691L81.2197 53.711C80.3698 53.1444 80.2754 52.0113 80.9364 51.1614L104.355 21.4165C104.921 20.5667 106.054 20.4722 106.904 21.1332L123.24 33.9755L124.279 47.762Z" fill="#5C6479"/>
</g>
<path d="M116.63 36.5252L105.771 28.0267C105.582 27.8378 105.488 27.5545 105.677 27.1768C105.865 26.9879 106.149 26.8935 106.526 27.0824L117.386 35.5809C117.575 35.7698 117.669 36.0531 117.48 36.4308C117.197 36.7141 116.914 36.7141 116.63 36.5252Z" fill="#2E3746"/>
<path d="M107.943 33.8811L103.882 30.5761C103.694 30.3872 103.599 30.1039 103.788 29.7262C103.977 29.4429 104.26 29.4429 104.638 29.6318L108.698 32.9368C108.887 33.1257 108.982 33.4089 108.793 33.7867C108.509 34.0699 108.132 34.0699 107.943 33.8811Z" fill="#2E3746"/>
<path d="M123.24 33.9757L118.235 40.3024C117.48 41.2467 117.763 42.5687 118.613 43.2297L124.373 47.7622" fill="#2E3746"/>
<path d="M117.291 49.1786L111.626 44.8349L105.771 40.2079L100.389 35.9587C99.822 35.4865 98.8777 35.5809 98.4056 36.2419L90.6625 46.0625C90.1903 46.6291 90.2848 47.5733 90.8513 48.0455L107.848 61.4543C108.415 61.9265 109.359 61.832 109.831 61.171L117.575 51.3505C118.047 50.5006 117.952 49.7452 117.291 49.1786ZM99.3499 49.0842L101.05 46.8179L106.243 50.8783L104.543 53.1446L99.3499 49.0842ZM104.071 53.8056L102.466 55.883L97.2725 51.8226L98.8777 49.7452L104.071 53.8056ZM108.509 48.0455L106.81 50.3118L101.616 46.2514L103.316 43.9851L108.509 48.0455ZM103.788 43.3241L105.677 41.0578L110.87 45.1182L109.17 47.3845L103.788 43.3241ZM113.231 55.3165L107.471 50.7839L109.17 48.5176L114.931 53.0502L113.231 55.3165ZM100.955 45.6848L95.3839 41.3411L97.0836 39.0748L102.655 43.4185L100.955 45.6848ZM94.8173 42.0021L100.389 46.3458L98.6889 48.6121L93.1176 44.2684L94.8173 42.0021ZM106.999 51.4449L112.759 55.9775L111.059 58.2437L105.299 53.7112L106.999 51.4449ZM116.914 50.6895L115.497 52.4836L109.737 47.9511L111.437 45.6848L116.725 49.8396C117.102 50.0285 117.102 50.4062 116.914 50.6895ZM99.822 36.4308L104.921 40.4912L103.221 42.7575L97.6502 38.4138L99.0666 36.6197C99.2554 36.3364 99.6332 36.3364 99.822 36.4308ZM91.3235 46.4402L92.551 44.9294L98.1223 49.2731L96.517 51.3505L91.3235 47.2901C91.1346 47.1012 91.1346 46.6291 91.3235 46.4402ZM108.415 60.51L103.127 56.3552L104.732 54.2778L110.492 58.8103L109.17 60.4156C108.982 60.7933 108.604 60.7933 108.415 60.51Z" fill="#2E3746"/>
<path d="M168.232 62.6628H66.5266C64.435 62.6628 62.6048 64.4935 62.6048 66.5858V132.232C62.6048 134.324 64.435 133.54 66.5266 133.54H167.971C170.062 133.54 171.893 134.324 171.893 132.232V66.5858C172.154 64.4935 170.324 62.6628 168.232 62.6628Z" fill="#262A31"/>
<path d="M164.814 66.4775H70.1645C68.2179 66.4775 66.5147 68.1165 66.5147 69.9896V128.759C66.5147 130.632 68.2179 129.929 70.1645 129.929H164.571C166.518 129.929 168.221 130.632 168.221 128.759V69.9896C168.464 68.1165 166.761 66.4775 164.814 66.4775Z" fill="#474E61"/>
<path d="M187.318 129.878V131.97C187.318 134.324 185.227 136.416 182.874 136.416H51.8851C49.5321 136.416 47.4404 134.324 47.4404 131.97V129.878H187.318Z" fill="#353B4A"/>
<path d="M129.537 129.878V130.663C129.537 131.97 128.491 133.278 126.922 133.278H107.575C106.268 133.278 104.96 132.232 104.96 130.663V129.878H129.537Z" fill="#262A31"/>
<path d="M127.707 96.9244H119.079V88.2937C119.079 87.2475 118.295 86.4629 117.249 86.4629C116.203 86.4629 115.419 87.2475 115.419 88.2937V96.9244H106.791C105.745 96.9244 104.96 97.7091 104.96 98.7552C104.96 99.8014 105.745 100.586 106.791 100.586H115.419V109.217C115.419 110.263 116.203 111.048 117.249 111.048C118.295 111.048 119.079 110.263 119.079 109.217V100.586H127.707C128.753 100.586 129.537 99.8014 129.537 98.7552C129.537 97.7091 128.753 96.9244 127.707 96.9244Z" fill="#8E96AB"/>
<g filter="url(#filter1_d_2326_10201)">
<path d="M187.064 96.0158L158.14 111.673C156.468 112.569 154.393 111.963 153.48 110.288L138.532 82.5924C137.638 80.9188 138.243 78.842 139.918 77.9272L168.841 62.2698C170.513 61.3744 172.588 61.9797 173.501 63.6554L188.468 91.3528C189.362 93.0264 188.736 95.1204 187.064 96.0158Z" fill="url(#paint0_linear_2326_10201)"/>
</g>
<path d="M183.225 92.7352L157.794 106.5C157.082 106.893 156.189 106.616 155.797 105.904L143.438 83.0026C143.046 82.29 143.323 81.3963 144.035 81.0036L169.466 67.2383C170.178 66.8456 171.071 67.1223 171.463 67.835L183.821 90.7361C184.213 91.4488 183.937 92.3425 183.225 92.7352Z" fill="#5B6379"/>
<path d="M166.339 90.6734L157.054 95.6962L158.845 87.9286L166.339 90.6734Z" fill="#474E61"/>
<path d="M174.015 86.5134L160.65 93.7564L163.235 82.5757L174.015 86.5134Z" fill="#2E3746"/>
<path d="M155.507 86.8476C156.6 86.9696 157.586 86.1812 157.708 85.0866C157.83 83.9921 157.043 83.0058 155.949 82.8838C154.856 82.7617 153.871 83.5501 153.748 84.6447C153.626 85.7393 154.414 86.7256 155.507 86.8476Z" fill="#474E61"/>
<g filter="url(#filter2_d_2326_10201)">
<path d="M190.234 101.979L157.35 102.629C155.454 102.658 153.888 101.169 153.845 99.2608L153.262 67.7946C153.235 65.8974 154.725 64.3294 156.632 64.2841L189.516 63.6337C191.412 63.6048 192.978 65.0939 193.021 67.0019L193.62 98.4789C193.647 100.376 192.13 101.95 190.234 101.979Z" fill="url(#paint1_linear_2326_10201)"/>
</g>
<path d="M188.327 97.3021L159.415 97.8727C158.602 97.8952 157.936 97.24 157.914 96.4269L157.434 70.4083C157.412 69.5953 158.068 68.9279 158.88 68.9054L187.792 68.3348C188.605 68.3123 189.271 68.9676 189.293 69.7806L189.774 95.7992C189.795 96.6123 189.14 97.2796 188.327 97.3021Z" fill="#5B6379"/>
<path d="M174.267 87.7271L163.712 87.9326L168.865 81.851L174.267 87.7271Z" fill="#354156"/>
<path d="M182.996 87.5506L167.797 87.8583L175.221 79.1075L182.996 87.5506Z" fill="#2E3746"/>
<path d="M166.395 79.3599C167.31 79.9698 168.548 79.721 169.158 78.8043C169.769 77.8876 169.521 76.6501 168.606 76.0403C167.69 75.4305 166.453 75.6793 165.842 76.596C165.232 77.5126 165.479 78.7501 166.395 79.3599Z" fill="#354156"/>
<path d="M190.569 103.147L183.594 105.298L189.149 113.514L184.622 116.575L179.067 108.359L174.473 114.031L170.503 90.8161L190.569 103.147Z" fill="#8E96AB"/>
<g filter="url(#filter3_d_2326_10201)">
<path d="M52.3902 67.9504L70.09 87.7354C70.6849 88.42 70.5021 89.5237 69.7168 90.2261L47.2992 110.275C46.5139 110.978 45.3846 110.992 44.8168 110.339L22.427 84.5724C21.8321 83.8878 22.0149 82.7841 22.8002 82.0817L39.0423 67.5556L52.3902 67.9504Z" fill="#5C6479"/>
</g>
<path d="M38.247 66.6949L43.3321 72.7011C44.0463 73.5446 45.36 73.591 46.2036 72.8768L51.5349 68.3631" fill="#2E3746"/>
<g clip-path="url(#clip0_2326_10201)">
<path d="M33.4065 71.3166L32.11 72.4142L32.8645 73.3054L34.161 72.2077L33.4065 71.3166Z" fill="#2E3746"/>
<path d="M35.47 71.0995L34.1736 72.1971L34.9281 73.0883L36.2245 71.9906L35.47 71.0995Z" fill="#2E3746"/>
<path d="M34.9049 73.0864L33.6084 74.184L34.3629 75.0752L35.6594 73.9775L34.9049 73.0864Z" fill="#2E3746"/>
<path d="M36.9684 72.8692L35.6719 73.9669L36.4264 74.858L37.7229 73.7604L36.9684 72.8692Z" fill="#2E3746"/>
<path d="M36.4138 74.8687L35.1174 75.9663L35.8719 76.8575L37.1683 75.7598L36.4138 74.8687Z" fill="#2E3746"/>
<path d="M38.4774 74.6516L37.1809 75.7492L37.9354 76.6404L39.2319 75.5427L38.4774 74.6516Z" fill="#2E3746"/>
<path d="M37.9122 76.6384L36.6158 77.7361L37.3702 78.6272L38.6667 77.5296L37.9122 76.6384Z" fill="#2E3746"/>
<path d="M39.9757 76.4213L38.6793 77.519L39.4338 78.4101L40.7302 77.3125L39.9757 76.4213Z" fill="#2E3746"/>
<path d="M39.4212 78.4208L38.1248 79.5184L38.8792 80.4096L40.1757 79.312L39.4212 78.4208Z" fill="#2E3746"/>
<path d="M41.4847 78.2037L40.1883 79.3013L40.9428 80.1925L42.2392 79.0949L41.4847 78.2037Z" fill="#2E3746"/>
<path d="M40.9196 80.1906L39.6231 81.2882L40.3776 82.1794L41.6741 81.0818L40.9196 80.1906Z" fill="#2E3746"/>
<path d="M42.9831 79.9735L41.6866 81.0711L42.4411 81.9623L43.7376 80.8646L42.9831 79.9735Z" fill="#2E3746"/>
<path d="M42.4286 81.9729L41.1321 83.0705L41.8866 83.9617L43.1831 82.8641L42.4286 81.9729Z" fill="#2E3746"/>
<path d="M44.4814 81.7432L43.185 82.8409L43.9395 83.732L45.2359 82.6344L44.4814 81.7432Z" fill="#2E3746"/>
<path d="M43.9269 83.7427L42.6305 84.8403L43.385 85.7315L44.6814 84.6339L43.9269 83.7427Z" fill="#2E3746"/>
<path d="M45.9905 83.5256L44.694 84.6232L45.4485 85.5143L46.7449 84.4167L45.9905 83.5256Z" fill="#2E3746"/>
<path d="M44.1395 86.6227L47.6675 90.7898L50.273 88.5839L46.745 84.4168L44.1395 86.6227ZM49.5534 88.5252L47.7283 90.0704L46.7081 88.8654L48.5332 87.3202L49.5534 88.5252Z" fill="#2E3746"/>
<path d="M50.026 99.7778L49.9616 97.6343C49.9698 97.2611 49.9701 96.9807 49.9888 96.62L49.9782 96.6075L48.5559 97.8117L47.8864 97.0209L50.5423 94.7724L51.0523 95.3748L51.1139 97.4129C51.1184 97.7755 51.1248 98.1148 51.0847 98.4504L51.0954 98.463L52.6561 97.1415L53.3363 97.9448L50.5042 100.343L50.026 99.7778Z" fill="#2E3746"/>
<path d="M51.6652 92.2702C51.899 92.5463 51.8763 92.9534 51.549 93.2305C51.2343 93.4969 50.8291 93.4521 50.5953 93.176C50.3383 92.8979 50.361 92.4909 50.6882 92.2138C51.0261 91.9493 51.4208 91.9815 51.6652 92.2702ZM54.1292 97.2735L51.3982 94.0477L52.4051 93.1952L55.1362 96.421L54.1292 97.2735Z" fill="#2E3746"/>
<path d="M54.1246 93.5926C53.7633 93.1658 53.4425 92.8125 53.1855 92.5344L54.054 91.7991L54.4869 92.2084L54.4995 92.1977C54.4518 91.6563 54.6574 91.159 55.1357 90.7541C55.8405 90.1573 57.0032 90.2289 57.8746 91.2581C58.8735 92.4379 58.5984 93.619 57.8684 94.237C57.4782 94.5674 57.038 94.66 56.7169 94.587L56.7043 94.5977L58.0645 96.2043L57.0576 97.0568L54.1246 93.5926ZM55.7798 93.5057C55.8435 93.581 55.9199 93.6457 55.9856 93.6978C56.2823 93.9206 56.6915 93.919 56.981 93.6739C57.4215 93.3009 57.3651 92.7238 56.8975 92.1715C56.4618 91.6569 55.9059 91.4596 55.4527 91.8432C55.1632 92.0883 55.0921 92.5148 55.2842 92.8694C55.3142 92.9302 55.3547 93.0036 55.4078 93.0664L55.7798 93.5057Z" fill="#2E3746"/>
</g>
<defs>
<filter id="filter0_d_2326_10201" x="58.5026" y="9.69946" width="87.7764" height="95.1034" filterUnits="userSpaceOnUse" color-interpolation-filters="sRGB">
<feFlood flood-opacity="0" result="BackgroundImageFix"/>
<feColorMatrix in="SourceAlpha" type="matrix" values="0 0 0 0 0 0 0 0 0 0 0 0 0 0 0 0 0 0 127 0" result="hardAlpha"/>
<feOffset dy="11"/>
<feGaussianBlur stdDeviation="11"/>
<feColorMatrix type="matrix" values="0 0 0 0 0 0 0 0 0 0 0 0 0 0 0 0 0 0 0.27 0"/>
<feBlend mode="normal" in2="BackgroundImageFix" result="effect1_dropShadow_2326_10201"/>
<feBlend mode="normal" in="SourceGraphic" in2="effect1_dropShadow_2326_10201" result="shape"/>
</filter>
<filter id="filter1_d_2326_10201" x="116.12" y="50.8569" width="94.7552" height="94.2293" filterUnits="userSpaceOnUse" color-interpolation-filters="sRGB">
<feFlood flood-opacity="0" result="BackgroundImageFix"/>
<feColorMatrix in="SourceAlpha" type="matrix" values="0 0 0 0 0 0 0 0 0 0 0 0 0 0 0 0 0 0 127 0" result="hardAlpha"/>
<feOffset dy="11"/>
<feGaussianBlur stdDeviation="11"/>
<feColorMatrix type="matrix" values="0 0 0 0 0 0 0 0 0 0 0 0 0 0 0 0 0 0 0.27 0"/>
<feBlend mode="normal" in2="BackgroundImageFix" result="effect1_dropShadow_2326_10201"/>
<feBlend mode="normal" in="SourceGraphic" in2="effect1_dropShadow_2326_10201" result="shape"/>
</filter>
<filter id="filter2_d_2326_10201" x="131.261" y="52.6333" width="84.3594" height="82.9961" filterUnits="userSpaceOnUse" color-interpolation-filters="sRGB">
<feFlood flood-opacity="0" result="BackgroundImageFix"/>
<feColorMatrix in="SourceAlpha" type="matrix" values="0 0 0 0 0 0 0 0 0 0 0 0 0 0 0 0 0 0 127 0" result="hardAlpha"/>
<feOffset dy="11"/>
<feGaussianBlur stdDeviation="11"/>
<feColorMatrix type="matrix" values="0 0 0 0 0 0 0 0 0 0 0 0 0 0 0 0 0 0 0.27 0"/>
<feBlend mode="normal" in2="BackgroundImageFix" result="effect1_dropShadow_2326_10201"/>
<feBlend mode="normal" in="SourceGraphic" in2="effect1_dropShadow_2326_10201" result="shape"/>
</filter>
<filter id="filter3_d_2326_10201" x="0.0751953" y="56.5556" width="92.3666" height="87.2603" filterUnits="userSpaceOnUse" color-interpolation-filters="sRGB">
<feFlood flood-opacity="0" result="BackgroundImageFix"/>
<feColorMatrix in="SourceAlpha" type="matrix" values="0 0 0 0 0 0 0 0 0 0 0 0 0 0 0 0 0 0 127 0" result="hardAlpha"/>
<feOffset dy="11"/>
<feGaussianBlur stdDeviation="11"/>
<feColorMatrix type="matrix" values="0 0 0 0 0 0 0 0 0 0 0 0 0 0 0 0 0 0 0.27 0"/>
<feBlend mode="normal" in2="BackgroundImageFix" result="effect1_dropShadow_2326_10201"/>
<feBlend mode="normal" in="SourceGraphic" in2="effect1_dropShadow_2326_10201" result="shape"/>
</filter>
<linearGradient id="paint0_linear_2326_10201" x1="166.469" y1="60.1892" x2="160.562" y2="113.119" gradientUnits="userSpaceOnUse">
<stop stop-color="#68728B"/>
<stop offset="0.9964" stop-color="#646E87"/>
</linearGradient>
<linearGradient id="paint1_linear_2326_10201" x1="188.362" y1="60.697" x2="158.84" y2="105.025" gradientUnits="userSpaceOnUse">
<stop stop-color="#68728B"/>
<stop offset="0.9964" stop-color="#646E87"/>
</linearGradient>
<clipPath id="clip0_2326_10201">
<rect width="11.4951" height="34.0431" fill="white" transform="translate(29.0514 75.0038) rotate(-40.2525)"/>
</clipPath>
</defs>
</svg>
