<svg width="200" height="160" viewBox="0 0 200 160" fill="none" xmlns="http://www.w3.org/2000/svg">
<path d="M151.232 62.6628H49.5266C47.435 62.6628 45.6048 64.4935 45.6048 66.5858V132.232C45.6048 134.324 47.435 133.54 49.5266 133.54H150.971C153.062 133.54 154.893 134.324 154.893 132.232V66.5858C155.154 64.4935 153.324 62.6628 151.232 62.6628Z" fill="#262A31"/>
<path d="M147.814 66.4775H53.1645C51.2179 66.4775 49.5147 68.1165 49.5147 69.9896V128.759C49.5147 130.632 51.2179 129.929 53.1645 129.929H147.571C149.518 129.929 151.221 130.632 151.221 128.759V69.9896C151.464 68.1165 149.761 66.4775 147.814 66.4775Z" fill="#474E61"/>
<path d="M170.318 129.878V131.97C170.318 134.324 168.227 136.416 165.874 136.416H34.8851C32.5321 136.416 30.4404 134.324 30.4404 131.97V129.878H170.318Z" fill="#5561FF"/>
<path d="M112.537 129.878V130.663C112.537 131.97 111.491 133.278 109.922 133.278H90.5748C89.2675 133.278 87.9603 132.232 87.9603 130.663V129.878H112.537Z" fill="#262A31"/>
<path d="M110.707 96.9244H102.079V88.2937C102.079 87.2475 101.295 86.4629 100.249 86.4629C99.2029 86.4629 98.4185 87.2475 98.4185 88.2937V96.9244H89.7905C88.7447 96.9244 87.9604 97.7091 87.9604 98.7552C87.9604 99.8014 88.7447 100.586 89.7905 100.586H98.4185V109.217C98.4185 110.263 99.2029 111.048 100.249 111.048C101.295 111.048 102.079 110.263 102.079 109.217V100.586H110.707C111.753 100.586 112.537 99.8014 112.537 98.7552C112.537 97.7091 111.753 96.9244 110.707 96.9244Z" fill="#5561FF" opacity="0.5"/>
<g filter="url(#filter0_d_2326_10201)">
<path d="M170.064 96.0158L141.14 111.673C139.468 112.569 137.393 111.963 136.48 110.288L121.532 82.5924C120.638 80.9188 121.243 78.842 122.918 77.9272L151.841 62.2698C153.513 61.3744 155.588 61.9797 156.501 63.6554L171.468 91.3528C172.362 93.0264 171.736 95.1204 170.064 96.0158Z" fill="url(#paint0_linear_2326_10201)"/>
</g>
<path d="M166.225 92.7352L140.794 106.5C140.082 106.893 139.189 106.616 138.797 105.904L126.438 83.0026C126.046 82.29 126.323 81.3963 127.035 81.0036L152.466 67.2383C153.178 66.8456 154.071 67.1223 154.463 67.835L166.821 90.7361C167.213 91.4488 166.937 92.3425 166.225 92.7352Z" fill="#5B6379"/>
<path d="M149.339 90.6734L140.054 95.6962L141.845 87.9286L149.339 90.6734Z" fill="#474E61"/>
<path d="M157.015 86.5134L143.65 93.7564L146.235 82.5757L157.015 86.5134Z" fill="#2E3746"/>
<path d="M138.507 86.8476C139.6 86.9696 140.586 86.1812 140.708 85.0866C140.83 83.9921 140.043 83.0058 138.949 82.8838C137.856 82.7617 136.871 83.5501 136.748 84.6447C136.626 85.7393 137.414 86.7256 138.507 86.8476Z" fill="#474E61"/>
<g filter="url(#filter1_d_2326_10201)">
<path d="M173.234 101.979L140.35 102.629C138.454 102.658 136.888 101.169 136.845 99.2608L136.262 67.7946C136.235 65.8974 137.725 64.3294 139.632 64.2841L172.516 63.6337C174.412 63.6048 175.978 65.0939 176.021 67.0019L176.62 98.4789C176.647 100.376 175.13 101.95 173.234 101.979Z" fill="url(#paint1_linear_2326_10201)"/>
</g>
<path d="M171.327 97.3021L142.415 97.8727C141.602 97.8952 140.936 97.24 140.914 96.4269L140.434 70.4083C140.412 69.5953 141.068 68.9279 141.88 68.9054L170.792 68.3348C171.605 68.3123 172.271 68.9676 172.293 69.7806L172.774 95.7992C172.795 96.6123 172.14 97.2796 171.327 97.3021Z" fill="#5B6379"/>
<path d="M157.267 87.7271L146.712 87.9326L151.865 81.851L157.267 87.7271Z" fill="#354156"/>
<path d="M165.996 87.5506L150.797 87.8583L158.221 79.1075L165.996 87.5506Z" fill="#2E3746"/>
<path d="M149.395 79.3599C150.31 79.9698 151.548 79.721 152.158 78.8043C152.769 77.8876 152.521 76.6501 151.606 76.0403C150.69 75.4305 149.453 75.6793 148.842 76.596C148.232 77.5126 148.479 78.7501 149.395 79.3599Z" fill="#354156"/>
<path d="M173.569 103.147L166.594 105.298L172.149 113.514L167.622 116.575L162.067 108.359L157.473 114.031L153.503 90.8161L173.569 103.147Z" fill="#8E96AB"/>
<defs>
<filter id="filter0_d_2326_10201" x="99.1202" y="50.8569" width="94.7552" height="94.2293" filterUnits="userSpaceOnUse" color-interpolation-filters="sRGB">
<feFlood flood-opacity="0" result="BackgroundImageFix"/>
<feColorMatrix in="SourceAlpha" type="matrix" values="0 0 0 0 0 0 0 0 0 0 0 0 0 0 0 0 0 0 127 0" result="hardAlpha"/>
<feOffset dy="11"/>
<feGaussianBlur stdDeviation="11"/>
<feColorMatrix type="matrix" values="0 0 0 0 0 0 0 0 0 0 0 0 0 0 0 0 0 0 0.27 0"/>
<feBlend mode="normal" in2="BackgroundImageFix" result="effect1_dropShadow_2326_10201"/>
<feBlend mode="normal" in="SourceGraphic" in2="effect1_dropShadow_2326_10201" result="shape"/>
</filter>
<filter id="filter1_d_2326_10201" x="114.261" y="52.6333" width="84.3594" height="82.9961" filterUnits="userSpaceOnUse" color-interpolation-filters="sRGB">
<feFlood flood-opacity="0" result="BackgroundImageFix"/>
<feColorMatrix in="SourceAlpha" type="matrix" values="0 0 0 0 0 0 0 0 0 0 0 0 0 0 0 0 0 0 127 0" result="hardAlpha"/>
<feOffset dy="11"/>
<feGaussianBlur stdDeviation="11"/>
<feColorMatrix type="matrix" values="0 0 0 0 0 0 0 0 0 0 0 0 0 0 0 0 0 0 0.27 0"/>
<feBlend mode="normal" in2="BackgroundImageFix" result="effect1_dropShadow_2326_10201"/>
<feBlend mode="normal" in="SourceGraphic" in2="effect1_dropShadow_2326_10201" result="shape"/>
</filter>
<linearGradient id="paint0_linear_2326_10201" x1="149.469" y1="60.1892" x2="143.562" y2="113.119" gradientUnits="userSpaceOnUse">
<stop stop-color="#68728B"/>
<stop offset="0.9964" stop-color="#646E87"/>
</linearGradient>
<linearGradient id="paint1_linear_2326_10201" x1="171.362" y1="60.697" x2="141.84" y2="105.025" gradientUnits="userSpaceOnUse">
<stop stop-color="#68728B"/>
<stop offset="0.9964" stop-color="#646E87"/>
</linearGradient>
</defs>
</svg>
