<svg width="533" height="291" viewBox="0 0 533 291" fill="none" xmlns="http://www.w3.org/2000/svg">
<path d="M527.807 221.699C521.473 244.85 512.579 266.807 498.636 286.094C483.975 306.369 473.578 328.636 462.294 350.644C441.498 390.686 414.211 425.543 373.4 448.372C339.334 467.629 301.872 475.568 261.044 469.501C231.207 465.142 202.894 455.24 177.006 438.709C174.255 437.009 171.503 435.308 168.26 434.961C139.833 431.313 115.087 419.158 92.4557 401.631C64.7546 380.231 41.9546 355.021 25.0701 325.098C12.1686 302.175 3.43552 277.773 1.08929 252.539C-1.61476 223.608 0.995065 195.628 13.4242 169.612C16.3716 163.436 17.5339 156.141 21.0832 150.739C25.42 144.069 28.3468 136.69 32.6492 130.16C40.1467 119.023 44.8239 106.465 50.8769 94.7578C58.6426 79.9569 68.7161 66.7272 79.8696 54.2614C95.3566 37.0715 113.162 22.0543 134.055 11.2311C152.58 1.66302 171.626 -7.45332 192.919 -12.1724C208.2 -15.6505 223.13 -20.2788 238.649 -22.7895C289.018 -31.006 339.243 -28.3367 389.248 -10.6123C427.889 3.05006 461.041 24.8421 487.405 56.1811C524.207 99.8449 538.361 148.581 531.109 201.854C530.266 208.494 528.946 215.145 527.807 221.699ZM403.046 418.096C405.117 418.699 406.269 417.239 407.318 416.198C417.852 406.246 427.716 395.799 435.602 383.728C438.216 379.55 443.616 376.933 443.808 371.002C440.654 371.579 438.842 373.146 438.041 375.757C436.61 380.279 433.281 383.5 430.213 386.947C421.157 397.33 412.215 407.896 403.16 418.279C391.968 426.392 380.777 434.506 369.551 442.759C376.67 439.595 383.528 436.206 389.513 431.215C394.335 427.082 400.543 424.401 403.046 418.096ZM225.483 418.864C239.457 420.693 250.807 419.661 261.514 415.448C272.403 411.138 280.213 403.237 288.581 395.647C299.913 385.03 308.972 372.702 316.735 359.846C323.64 348.537 329.535 336.184 334.247 323.487C345.613 293.419 353.805 262.725 351.837 229.518C349.769 194.784 340.379 162.107 319.192 132.278C284.663 83.8875 232.491 62.0883 176.467 68.8057C172.87 69.2537 169.352 70.0241 166.672 72.5362C149.366 88.7466 135.265 107.389 124.325 128C109.389 155.829 100.787 186.254 97.5106 218.232C92.8892 264.038 99.8343 308.576 124.176 350.703C136.692 372.615 151.248 393.326 175.55 405.352C182.749 408.948 190.526 414.06 198.181 410.005C206.453 405.381 214.601 399.973 221.146 393.348C248.581 364.972 261.377 330.382 258.773 290.103C257.878 274.423 250.982 260.587 239.518 248.562C237.383 246.292 232.299 243.762 234.968 240.648C237.351 238.05 242.026 240.311 245.334 242.324C246.562 243.131 247.756 244.078 248.767 245.121C261.685 258.318 271.14 273.35 274.092 290.977C280.253 328.401 270.303 361.726 250.923 392.151C244.509 402.107 236.004 410.255 225.483 418.864ZM323.827 397.991C325.592 397.906 326.548 397.886 327.243 397.639C349.636 388.451 370.145 376.617 389.972 363.687C405.253 353.772 418.921 342.039 431.952 329.672C440.856 321.19 449.533 312.344 453.856 300.581C464.583 271.824 471.282 242.042 472.179 210.717C473.509 166.047 466.254 122.766 442.047 82.0258C429.734 61.2205 413.18 44.1186 392.578 31.2254C359.037 10.3679 323.037 9.15203 286.855 14.4696C263.368 17.8003 241.58 25.8179 220.666 35.4376C211.177 39.856 201.811 45.0591 193.227 52.885C204.629 54.8622 214.792 55.4306 224.941 57.3422C259.338 63.7792 289.406 79.4323 315.191 102.819C350.318 134.617 369.531 173.751 374.86 218.417C381.499 275.141 367.443 326.43 339.565 373.988C334.919 381.914 329.385 389.582 323.827 397.991ZM90.1332 75.6666C93.3524 76.755 95.4023 76.1551 97.1116 75.0069C106.057 68.933 116.306 65.9337 126.851 63.0207C132.966 61.3608 139.082 59.7009 145.162 58.1807C155.126 55.6969 161.956 48.5571 169.956 43.1056C193.66 26.6648 219.486 13.8367 248.194 6.04052C282.504 -3.26561 317.042 -5.76923 353.324 3.3131C372.756 8.08114 390.535 15.0613 407.532 25.8557C435.092 43.3225 454.993 66.7893 470.14 94.1094C492.731 134.977 498.881 178.236 497.211 222.358C497.012 225.742 497.29 229.117 497.421 232.448C501.713 225.317 503.126 217.646 505.131 210.147C513.495 178.754 511.947 146.418 501.951 114.912C492.227 84.233 473.813 57.3074 447.25 35.7902C423.336 16.3924 396.612 2.61231 366.837 -4.57258C334.07 -12.4803 301.348 -13.4889 268.743 -9.82289C213.449 -3.49165 162.815 12.8808 119.972 45.8956C108.939 54.6541 98.8379 64.1335 90.1332 75.6666ZM134.271 390.172C131.358 383.335 125.573 378.504 121.28 372.762C96.7533 339.114 83.4663 302.307 78.4817 262.681C73.5075 223.657 79.7524 186.707 91.7549 150.837C99.1696 128.449 110.77 107.731 124.792 88.7665C125.944 87.3061 128.678 85.8579 126.394 83.5454C124.633 81.6846 122.979 83.8968 121.373 84.626C104.72 91.7458 90.3264 101.92 77.6596 114.094C66.0417 125.227 55.5726 136.844 52.4467 154.046C38.3472 230.62 56.3676 300.992 109.081 365.013C116.668 374.111 124.837 382.78 134.271 390.172ZM25.7552 206.44C15.6411 249.447 20.9972 291.427 46.5146 331.351C69.1601 366.845 96.9027 397.09 138.124 413.151C70.9862 357.498 33.5335 288.795 25.7552 206.44ZM410.027 376.869C408.899 377.588 407.623 378.264 406.643 379.026C383.397 394.253 358.596 406.781 332.433 417.116C317.672 422.991 301.3 425.103 286.948 431.247C270.876 437.938 255.09 444.113 237.229 445.192C237.081 445.149 237.057 445.89 236.816 446.868C271.485 454.133 304.386 450.553 335.175 437.525C365.816 424.455 393.062 406.502 410.027 376.869ZM130.835 108.642C126.068 113.838 121.573 119.863 120.194 127.394C123.768 121.251 127.375 114.968 130.835 108.642ZM140.916 91.5219C141.438 91.9737 141.813 92.3824 142.302 92.9739C145.906 88.6359 149.476 84.4375 153.08 80.0994C148.465 83.3942 143.553 86.6027 140.916 91.5219Z" fill="#F5F8FF"/>
</svg>
