<svg width="22" height="20" viewBox="0 0 22 20" fill="none" xmlns="http://www.w3.org/2000/svg">
<path fill-rule="evenodd" clip-rule="evenodd" d="M9.70197 0.781C9.95697 0.301 10.456 0 11 0C11.544 0 12.043 0.301 12.298 0.781L14.761 5.426C14.789 5.48 14.83 5.526 14.879 5.562C14.928 5.598 14.985 5.622 15.045 5.632L20.223 6.539C20.759 6.633 21.198 7.015 21.367 7.532C21.535 8.049 21.404 8.617 21.025 9.008L17.369 12.786C17.327 12.83 17.295 12.883 17.276 12.94C17.257 12.998 17.252 13.059 17.26 13.12L17.997 18.325C18.073 18.863 17.846 19.4 17.406 19.72C16.966 20.04 16.386 20.09 15.897 19.851L11.175 17.541C11.121 17.514 11.061 17.5 11 17.5C10.939 17.5 10.879 17.514 10.824 17.54L6.10197 19.85C5.61297 20.089 5.03297 20.038 4.59297 19.719C4.15297 19.399 3.92597 18.863 4.00197 18.324L4.73897 13.119C4.74797 13.059 4.74197 12.997 4.72297 12.939C4.70397 12.881 4.67297 12.828 4.62997 12.785L0.973973 9.007C0.595973 8.616 0.463973 8.048 0.631973 7.531C0.799973 7.014 1.23997 6.632 1.77597 6.538L6.95397 5.631C7.01397 5.62 7.07097 5.596 7.11997 5.561C7.16897 5.525 7.20997 5.479 7.23797 5.425L9.70197 0.781Z" fill="#5561FF"/>
</svg>
